<svg width="1223" height="303" viewBox="0 0 1223 303" fill="none" xmlns="http://www.w3.org/2000/svg">
<path fill-rule="evenodd" clip-rule="evenodd" d="M1223 303H361V291H1223V303Z" fill="white"/>
<path fill-rule="evenodd" clip-rule="evenodd" d="M1223 303H361V291H1223V303Z" fill="white"/>
<path fill-rule="evenodd" clip-rule="evenodd" d="M1223 17H361V5H1223V17Z" fill="white"/>
<path fill-rule="evenodd" clip-rule="evenodd" d="M0.643066 302.723L0.643066 155.223H12.6431L12.6431 302.723H0.643066Z" fill="white"/>
<path fill-rule="evenodd" clip-rule="evenodd" d="M286.644 167.225H6.64209V155.225H286.644V167.225Z" fill="white"/>
<path fill-rule="evenodd" clip-rule="evenodd" d="M189.629 83.775L203.551 77.3501L210.068 74.8464L216.112 72.3301L222.458 70.2183L228.791 68.6397L234.758 67.5607L243.852 67.0021L249.505 68.267L255.976 70.6313L261.264 74.1612L267.157 78.9919L271.914 83.762L277.168 89.5502L281.355 95.3117L286.049 102.097L291.417 112.296L294.187 121.145L295.812 131.376L296.347 157.484L284.35 157.729L283.832 132.445L282.473 123.893L280.291 116.921L275.768 108.328L271.565 102.253L267.844 97.1325L263.218 92.036L259.084 87.891L254.112 83.8148L250.509 81.4096L246.121 79.8067L242.891 79.0838L236.198 79.4949L231.313 80.3783L225.809 81.7502L220.318 83.5774L214.527 85.9884L208.222 88.4107L194.657 94.6707L189.629 83.775Z" fill="white"/>
<path fill-rule="evenodd" clip-rule="evenodd" d="M264.643 201.723H6.64307V189.723H264.643V201.723Z" fill="white"/>
<path fill-rule="evenodd" clip-rule="evenodd" d="M264.643 239.723H6.64307V227.723H264.643V239.723Z" fill="white"/>
<path fill-rule="evenodd" clip-rule="evenodd" d="M264.643 275.723H6.64307V263.723H264.643V275.723Z" fill="white"/>
<path fill-rule="evenodd" clip-rule="evenodd" d="M264.643 302.723H6.64307V290.723H264.643V302.723Z" fill="white"/>
<path fill-rule="evenodd" clip-rule="evenodd" d="M266.643 161.723V302.723H254.643L254.643 161.723H266.643Z" fill="white"/>
<path fill-rule="evenodd" clip-rule="evenodd" d="M255.143 302.723V290.723H268.344L272.851 290.272L277.635 289.475L280.495 287.886L282.583 285.797L283.439 283.801L284.216 280.691L284.642 276.436L284.143 155.248L296.143 155.198L296.644 277.01L296.07 282.754L294.847 287.645L292.703 292.648L287.792 297.56L281.651 300.971L274.436 302.174L268.942 302.723H255.143Z" fill="white"/>
<path fill-rule="evenodd" clip-rule="evenodd" d="M160.797 89.7225L159.484 89.4242C153.891 88.1533 149.279 87.1533 145.217 86.7077C141.128 86.2592 138.658 86.5131 137.166 87.0058C136.095 87.3595 135.184 87.9137 134.2 89.5759C133.003 91.5975 131.614 95.4821 130.989 102.622C129.509 119.545 141.631 133.874 157.335 135.248C173.039 136.622 187.465 124.615 188.946 107.692C189.566 100.604 188.815 96.7084 188.002 94.6877C187.353 93.0732 186.577 92.3623 185.407 91.7693C183.828 90.9684 181.241 90.2997 176.964 89.9726C173.383 89.6987 169.526 89.7077 164.963 89.7182C164.052 89.7203 163.113 89.7225 162.143 89.7225L160.797 89.7225ZM162.143 77.7225C140.143 72.7231 121.873 69.1405 119.035 101.576C117.004 124.797 133.683 145.224 156.289 147.202C178.895 149.18 198.868 131.959 200.9 108.738C203.623 77.616 185.693 77.6631 164.801 77.7179C163.92 77.7202 163.033 77.7225 162.143 77.7225Z" fill="white"/>
<path fill-rule="evenodd" clip-rule="evenodd" d="M157.231 61.1794L159.352 51.107L163.085 40.4413L167.857 30.3663L173.585 20.9934L179.852 11.5934L186.088 4.31825L195.199 12.1277L189.434 18.8526L183.701 27.4527L178.429 36.0797L174.201 45.0047L170.935 54.3386L169.055 63.2662L167.605 73.4157L166.739 83.0675L154.787 81.9948L155.681 72.0299L157.231 61.1794Z" fill="white"/>
<path fill-rule="evenodd" clip-rule="evenodd" d="M1.78113 155.666L122.424 107.648L126.862 118.798L6.21874 166.815L1.78113 155.666Z" fill="white"/>
<path d="M407.2 200.1C399.427 200.1 392.387 198.413 386.08 195.04C379.847 191.593 374.933 186.863 371.34 180.85C367.82 174.837 366.06 168.053 366.06 160.5C366.06 152.947 367.857 146.163 371.45 140.15C375.043 134.137 379.957 129.443 386.19 126.07C392.497 122.623 399.537 120.9 407.31 120.9C413.617 120.9 419.373 122 424.58 124.2C429.787 126.4 434.187 129.59 437.78 133.77L428.54 142.46C422.967 136.447 416.11 133.44 407.97 133.44C402.69 133.44 397.96 134.613 393.78 136.96C389.6 139.233 386.337 142.423 383.99 146.53C381.643 150.637 380.47 155.293 380.47 160.5C380.47 165.707 381.643 170.363 383.99 174.47C386.337 178.577 389.6 181.803 393.78 184.15C397.96 186.423 402.69 187.56 407.97 187.56C416.11 187.56 422.967 184.517 428.54 178.43L437.78 187.23C434.187 191.41 429.75 194.6 424.47 196.8C419.263 199 413.507 200.1 407.2 200.1Z" fill="white"/>
<path d="M514.904 122V199H500.824V134.1H470.464L469.804 153.35C469.437 164.13 468.557 172.893 467.164 179.64C465.77 186.313 463.534 191.41 460.454 194.93C457.374 198.377 453.12 200.1 447.694 200.1C445.787 200.1 443.184 199.733 439.884 199L440.874 186.57C441.827 186.863 442.927 187.01 444.174 187.01C448.647 187.01 451.8 184.37 453.634 179.09C455.54 173.737 456.714 165.34 457.154 153.9L458.254 122H514.904Z" fill="white"/>
<path d="M587.605 181.18H549.105L541.515 199H526.775L561.425 122H575.505L610.265 199H595.305L587.605 181.18ZM582.875 169.96L568.355 136.3L553.945 169.96H582.875Z" fill="white"/>
<path d="M698.95 186.9V215.39H685.75V199H626.68V215.39H613.37L613.48 186.9H616.78C621.62 186.68 624.993 183.123 626.9 176.23C628.88 169.263 630.09 159.327 630.53 146.42L631.41 122H687.84V186.9H698.95ZM643.07 147.74C642.703 157.713 641.897 166.037 640.65 172.71C639.403 179.31 637.423 184.04 634.71 186.9H673.76V134.1H643.62L643.07 147.74Z" fill="white"/>
<path d="M740.795 166.55H726.495V199H712.415V122H726.495V154.23H741.235L763.345 122H778.525L752.235 159.29L779.515 199H763.345L740.795 166.55Z" fill="white"/>
<path d="M824.647 200.1C816.8 200.1 809.723 198.413 803.417 195.04C797.11 191.593 792.16 186.863 788.567 180.85C784.973 174.763 783.177 167.98 783.177 160.5C783.177 153.02 784.973 146.273 788.567 140.26C792.16 134.173 797.11 129.443 803.417 126.07C809.723 122.623 816.8 120.9 824.647 120.9C832.493 120.9 839.57 122.623 845.877 126.07C852.183 129.443 857.133 134.137 860.727 140.15C864.32 146.163 866.117 152.947 866.117 160.5C866.117 168.053 864.32 174.837 860.727 180.85C857.133 186.863 852.183 191.593 845.877 195.04C839.57 198.413 832.493 200.1 824.647 200.1ZM824.647 187.56C829.78 187.56 834.4 186.423 838.507 184.15C842.613 181.803 845.84 178.577 848.187 174.47C850.533 170.29 851.707 165.633 851.707 160.5C851.707 155.367 850.533 150.747 848.187 146.64C845.84 142.46 842.613 139.233 838.507 136.96C834.4 134.613 829.78 133.44 824.647 133.44C819.513 133.44 814.893 134.613 810.787 136.96C806.68 139.233 803.453 142.46 801.107 146.64C798.76 150.747 797.587 155.367 797.587 160.5C797.587 165.633 798.76 170.29 801.107 174.47C803.453 178.577 806.68 181.803 810.787 184.15C814.893 186.423 819.513 187.56 824.647 187.56Z" fill="white"/>
<path d="M939.677 187.01V199H881.927V122H938.137V133.99H896.227V154.01H933.407V165.78H896.227V187.01H939.677Z" fill="white"/>
<path d="M1022.08 166.55H1008.88V199H994.909V166.55H981.709L962.239 199H945.739L969.939 158.85L947.389 122H962.569L981.379 154.23H994.909V122H1008.88V154.23H1022.19L1041.11 122H1056.29L1033.85 158.96L1057.94 199H1041.44L1022.08 166.55Z" fill="white"/>
<path d="M1096.25 166.55H1081.95V199H1067.87V122H1081.95V154.23H1096.69L1118.8 122H1133.98L1107.69 159.29L1134.97 199H1118.8L1096.25 166.55Z" fill="white"/>
<path d="M1194.43 181.18H1155.93L1148.34 199H1133.6L1168.25 122H1182.33L1217.09 199H1202.13L1194.43 181.18ZM1189.7 169.96L1175.18 136.3L1160.77 169.96H1189.7Z" fill="white"/>
</svg>
